<svg width="500" height="500" viewBox="0 0 500 500" fill="none" xmlns="http://www.w3.org/2000/svg">
<path d="M197.314 356H95.459V347.113H127.93V159.809H114.6C96.1426 160.036 83.4961 171.658 76.6602 194.672L69.1406 220.648H59.2285L60.5957 150.922H232.861L234.57 220.648H224.658L217.139 194.672C210.531 171.658 197.77 160.036 178.857 159.809H164.502V347.113H188.086C192.415 347.569 195.492 350.531 197.314 356ZM334.033 347.455C335.628 347.455 336.995 347.569 338.135 347.797C341.097 348.253 342.578 350.987 342.578 356H253.027V347.455C258.952 347.455 263.395 346.999 266.357 346.088C272.965 344.265 276.27 338.227 276.27 327.973V218.598H253.027V210.053H306.689L308.398 243.207C311.133 236.371 315.007 230.219 320.02 224.75C330.957 213.357 343.262 207.66 356.934 207.66C359.44 207.66 361.947 207.888 364.453 208.344C375.163 211.078 380.518 217.8 380.518 228.51C380.518 230.561 380.176 232.611 379.492 234.662C376.758 242.182 371.403 245.941 363.428 245.941C361.605 245.941 359.896 245.714 358.301 245.258C354.427 243.891 350.553 239.789 346.68 232.953C343.49 227.484 340.299 224.75 337.109 224.75C334.147 224.978 330.843 226.687 327.197 229.877C315.12 240.587 309.082 257.79 309.082 281.488V347.455H334.033ZM436.23 337.543C436.23 340.505 435.547 343.467 434.18 346.43C430.306 353.949 424.268 357.709 416.064 357.709C413.102 357.709 410.254 357.139 407.52 356C399.772 352.354 395.898 346.202 395.898 337.543C395.898 334.581 396.582 331.618 397.949 328.656C401.595 320.909 407.633 317.035 416.064 317.035C419.255 317.035 422.331 317.833 425.293 319.428C432.585 323.301 436.23 329.34 436.23 337.543Z" fill="black"/>
</svg>
